<svg version="1.1" id="Layer_1" xmlns="http://www.w3.org/2000/svg" x="0" y="0" viewBox="0 0 160.5 39.4" xml:space="preserve"><style>.st0{fill:#0042cf}</style><path class="st0" d="M112.6 25.8c-3.3 0-5.9-2.7-5.9-6.2 0-3.6 2.4-6.1 5.9-6.1 2-.1 3.8 1 4.8 2.7h4.7c-1.3-3.8-5.2-6.5-9.6-6.5-5.5-.1-10 4.2-10 9.7v.4c0 5.5 4.4 9.8 10.1 9.8 4.3.1 8.2-2.6 9.6-6.6h-4.7c-1 1.7-2.9 2.8-4.9 2.8zM.3 18.3l1.9 7.3c.3.4.6.7.9 1L.6 16.9c-.1.5-.2.9-.3 1.4zm.4-1.6l3.5 10.9c.3.2.5.4.8.5L1 15.7c-.1.4-.2.7-.3 1zm4.1 3.8l-2.9-6.2c-.1.2-.3.4-.4.6l6.8 14.4c.2 0 .5.1.7.1l-2.9-6.2c-.7-.7-1.2-1.7-1.3-2.7zm2.6 3.8l2.9 5.2h.7l-2.6-4.7c-.4-.2-.7-.3-1-.5zm2.7.8h-.7l2.7 4.3c.2 0 .4-.1.6-.2l-2.6-4.1zm3.8-1.6l3.1 3.3.4-.4-3.1-3.4c-.1.2-.3.4-.4.5zm6-4.1L6.1 10.7c-.2.1-.4.2-.7.3l5.3 3.4c1.6.2 3 1.1 3.8 2.4l5.3 3.4v-.5c.1-.1.1-.2.1-.3zm-15-.9l-2.5-4.6L5 18c.1-.2.2-.5.3-.7l-2.4-3.8L5.4 17c.1-.2.2-.4.4-.6l-2.4-3.3L6 16.2c.1-.2.3-.3.4-.5l-2.5-3 2.7 2.9c.2-.1.3-.3.5-.4l-2.7-2.9 2.9 2.8.6-.3-3.1-2.9 3.3 2.8c.2-.1.5-.2.7-.2l-3.6-3 4 2.9c.3-.1.6-.1.9-.1L5.5 11c-1.5.8-2.7 1.9-3.6 3.3l2.9 5.2c-.1-.4 0-.7.1-1zM.2 19.7c0 1.5.3 3 1 4.2L.3 19c0 .3-.1.5-.1.7zm.9-4l5.2 13.1c.2.1.5.2.7.2L1.5 15c-.2.2-.3.4-.4.7zm16.3-2.6L9.3 9.9c-.4 0-.8.1-1.2.1l10.1 4c-.3-.3-.5-.6-.8-.9zm2.3 4.3l-12.8-7c-.3.1-.5.2-.7.3l13.7 7.5c-.1-.3-.2-.6-.2-.8zm-.8-2.1l-11-5.2-.9.3 12.3 5.8c-.1-.4-.3-.7-.4-.9zm-8.8-5.5h-.3l6.3 2c-1.7-1.2-3.7-2-6-2zm5.3 11l3.7 3c.1-.2.2-.4.2-.6L15.5 20c-.1.3-.1.5-.1.8zm-.6 1.5l3.3 3.1c.1-.2.2-.3.3-.5L15 21.7c0 .2-.1.4-.2.6zm.6-3.3l4.2 3.1c.1-.2.1-.4.1-.7l-4.6-3.3c.2.3.3.6.3.9zm-2.8 5.4l2.9 3.5c.2-.1.3-.2.5-.4L13.1 24c-.1.2-.3.3-.5.4zm-1.5.6l2.8 3.8.6-.3-2.7-3.7c-.2.1-.4.1-.7.2z"/><path class="st0" d="M15.5 19.6l4.5 9.8v-1.5l-4.5-9.8v1.5zm0-4L20 27.2v-1.7l-4.5-11.6v1.7zm3.7-5.8l.7 3.3V9.8h-.7zm-9.1 29.5c.9 0 1.7-.1 2.5-.3l-2.5-.3v.6zm5.4-10.7L19 33l-3.5-3.9v.8l3.1 3.4-3.1-3.1c0 .2-.1.5-.2.7l2.8 2.8-2.9-2.5-.3.6 2.8 2.4-2.9-2.2c-.1.2-.2.4-.3.5l2.8 2.2-3-2c-.1.2-.3.3-.4.5l3 2.1-3.2-1.9c-.2.1-.3.3-.5.4l3.4 2L13 34c-.2.1-.4.3-.6.4l4 2-4.4-1.9-.9.3 5 2.2-5.7-2.1h-.3v.5l5.7 2.1c1.7-1.2 3-2.9 3.6-4.9l-4-5v1zm0-18.8v.4L20 24.3v-2L16 9.8h-.5zm1.9 0L19.9 20v-2.5L18 9.8h-.6zm-7.3 27.6l4.2 1c.3-.1.6-.3.8-.4l-5-1.2v.6zm0-1l5 1.5c.2-.1.5-.3.7-.4l-5.7-1.7v.6zm0 2l2.9.5c.4-.1.8-.3 1.1-.4l-4-.7v.6zm5.4-15.8l4.4 8.2c0-.4.1-.8.1-1.1l-4.5-8.4v1.3zm0 2.4l4.2 6.8c.1-.3.1-.6.2-.9l-4.4-7.1V25zm0 2l4 5.7c.1-.2.2-.5.2-.8l-4.2-6V27zM30 29.4l7.3-1.9c.4-.3.7-.6 1-.9l-9.7 2.5c.5.2.9.3 1.4.3zm-1.6-.3l10.9-3.5c.2-.3.4-.5.5-.8l-12.4 4c.4.1.7.2 1 .3zm3.8-4.1L26 27.9c.2.1.4.3.6.4L41 21.5c0-.2.1-.5.1-.7l-6.2 2.9c-.7.7-1.7 1.1-2.7 1.3zm3.8-2.6l5.2-2.9v-.7l-4.7 2.6c-.2.4-.3.7-.5 1zm.7-2.7v.7l4.3-2.7c0-.2-.1-.4-.2-.6l-4.1 2.6c0-.1 0 0 0 0zm-1.5-3.8l3.3-3.1-.4-.4-3.3 3.1c.1.1.2.3.4.4zm-4.1-6.1l-8.8 13.8c.1.2.2.4.3.7L26 19c.2-1.6 1.1-3 2.4-3.8l3.4-5.3h-.5c0-.1-.1-.1-.2-.1zm-1 15.1l-4.6 2.5 4.1-2.6c-.2-.1-.5-.2-.7-.3l-3.8 2.4 3.5-2.5c-.2-.1-.4-.2-.6-.4l-3.3 2.4 3.1-2.6c-.2-.1-.3-.3-.5-.4l-3 2.5 2.9-2.7c-.1-.2-.3-.3-.4-.5l-2.9 2.7 2.8-2.9-.3-.6-2.9 3.1 2.8-3.3c-.1-.2-.2-.4-.2-.7l-3 3.6 2.9-4v-.9l-3.3 4.6c.8 1.5 1.9 2.7 3.3 3.6l5.2-2.9c-.4 0-.7 0-1.1-.1zm1.3 4.6c1.5 0 3-.3 4.2-1l-4.9.9c.2.1.5.1.7.1zm-4-.8l13.1-5.2c.1-.3.2-.5.3-.8l-14.1 5.6c.2.2.4.3.7.4zm-2.6-16.3l-3.2 8.1c0 .4.1.8.2 1.2l4-10.1c-.4.3-.7.5-1 .8zm4.3-2.3l-7 12.8c.1.3.2.5.3.8L29.9 10c-.3 0-.6 0-.8.1zm-2.2.8l-5.2 11 .3.9 5.8-12.3c-.3.1-.6.2-.9.4zm-5.4 8.8v.3l2-6.3c-1.2 1.6-2 3.7-2 6zm10.9-5.3l3-3.7c-.2-.1-.4-.2-.6-.2l-3.2 3.8c.4 0 .6.1.8.1zm1.6.6l3.1-3.3c-.2-.1-.3-.2-.5-.3l-3.2 3.4c.2 0 .4.1.6.2zm-3.3-.6l3.1-4.2c-.2-.1-.4-.1-.7-.1l-3.3 4.6c.2-.2.5-.3.9-.3zm5.4 2.7l3.5-2.9c-.1-.2-.2-.3-.4-.5l-3.5 2.9c.2.2.3.4.4.5zm.5 1.5l3.8-2.8-.3-.6-3.6 2.8c0 .2.1.4.1.6z"/><path class="st0" d="M36.7 15.5l4.5 5.6v-1l-4.5-5.6v1zm0 2.2l4.5 5v-.9l-4.5-5v.9zm0-4.7l4.5 6.4v-1.1l-4.5-6.4V13zm0 16.5h1.1l-1.1-.4v.4zm2-19.6l2.5 4.8v-1.3l-1.9-3.5h-.6zm-2 9.7l4.5 4.4v-.9l-4.5-4.4v.9zm0-9.7l4.5 7.4v-1.2l-3.8-6.2h-.7zm4.5 0h-.7l.7 1.5V9.9zm-4.5 11.4l4.5 3.9v-.8l-4.5-3.9v.8zm0 7.6l1.6.6h1.8l-3.4-1.2v.6zm0-2.2l4.5 2.3v-.7L36.7 26v.7zm0 1.2l3.8 1.7h.7v-.4l-4.5-2v.7zm0-2.3l4.5 2.7v-.7l-4.5-2.7v.7zm0-2.7l4.5 3.5v-.8l-4.5-3.5v.8zm0 1.4l4.5 3v-.7l-4.5-3v.7zm18-14.4l-7.3 1.9c-.4.3-.7.6-1 .9l9.7-2.5c-.5-.1-.9-.2-1.4-.3zm1.6.4l-10.9 3.5c-.2.3-.4.5-.5.8l12.4-4c-.4-.1-.7-.2-1-.3zm-3.8 4.1l6.2-2.9c-.2-.1-.4-.3-.6-.4l-14.4 6.8c0 .2-.1.5-.1.7l6.2-2.9c.7-.7 1.7-1.2 2.7-1.3zM48.7 17l-5.2 2.9v.7l4.7-2.6c.2-.4.3-.7.5-1zm-.8 2.7V19l-4.3 2.7c0 .2.1.4.2.6l4.1-2.6zm1.6 3.8l-3.3 3.1.4.4 3.3-3.1c-.1-.2-.2-.3-.4-.4zm4.1 6l8.8-13.8-.3-.6-3.4 5.3c-.2 1.6-1.1 3-2.4 3.8l-3.4 5.3h.7zm.9-15.1l4.6-2.5-4.1 2.7c.2.1.5.2.7.3l3.8-2.4-3.6 2.5c.2.1.4.2.6.4l3.3-2.4-3.1 2.6c.2.1.3.3.5.4l3-2.5-2.9 2.7c.1.2.3.3.4.5l2.9-2.7-2.8 2.9.3.6 2.9-3.1-2.8 3.3c.1.2.2.5.2.7l3-3.6-2.9 4c.1.3.1.6.1.9l3.3-4.6c-.8-1.5-1.9-2.7-3.3-3.6l-5.2 2.9c.5-.1.8 0 1.1 0zm-1.2-4.6c-1.5 0-3 .3-4.2 1l4.9-.9c-.2-.1-.5-.1-.7-.1zm4 .9l-13.1 5.2c-.1.3-.2.5-.3.8L58.1 11c-.3-.1-.5-.2-.8-.3zM59.9 27l3.2-8.1c0-.4-.1-.8-.2-1.2l-4 10.1c.4-.3.7-.5 1-.8zm-4.3 2.3l7-12.8c-.1-.3-.2-.5-.3-.7l-7.5 13.7c.3-.1.6-.2.8-.2zm2.1-.8l5.2-11-.3-.9-5.8 12.3c.4-.2.7-.3.9-.4zm5.5-8.8v-.3l-2 6.3c1.2-1.7 2-3.8 2-6zM52.3 25l-3 3.7c.2.1.4.2.6.2L53 25h-.7zm-1.6-.6l-3.1 3.3c.2.1.3.2.5.3l3.2-3.4c-.2 0-.4-.1-.6-.2zm3.3.6l-3 4.2c.2.1.4.1.7.1l3.3-4.6c-.3.2-.6.3-1 .3zm-5.4-2.8l-3.5 2.9c.1.2.2.3.4.5l3.5-2.9c-.2-.1-.3-.3-.4-.5zm-.5-1.5l-3.8 2.8.3.6 3.7-2.7c-.1-.2-.2-.4-.2-.7z"/><path class="st0" d="M43.5 23.5l2 6.1h.6l-2.6-8v1.9zm0-4.5l4.1 10.5h.4v-.9l-4.5-11.3V19zM48 .1h-4.5v5.4L48 9.2v-.8l-4.5-3.7L48 7.9v-.7l-4.1-3L48 6.8v-.7l-3.8-2.4L48 5.8v-.7l-3.5-1.9L48 4.8v-.7l-3.2-1.5L48 3.9v-.7L45 2l3 1v-.7l-2.8-.9 2.8.7v-.6L45.4.8l2.6.5V.7L45.5.2l2.5.3V.1zm-4.5 29.4h.8l-.8-2.3v2.3zm0-13.7l4.5 9.5v-1.4l-4.5-9.5v1.4zm0-7.3l4.5 5.4v-1l-4.5-5.4v1zm0-2.1l4.5 4.2v-.9l-4.5-4.2v.9zm0 1l4.5 4.8v-.9l-4.5-4.8v.9zm0 4l4.5 7v-1.1l-4.5-7v1.1zm0-1.5L48 16v-1l-4.5-6.2v1.1zm0 3.5l4.5 8.1v-1.3l-4.5-8.1v1.3zm27.9 4.9l1.9 7.3c.3.4.6.7.9 1L71.6 17c-.1.4-.2.8-.2 1.3zm.3-1.6l3.5 10.9c.3.2.5.4.8.5l-4-12.4c-.1.4-.2.7-.3 1zm4.1 3.8l-2.9-6.2c-.1.2-.3.4-.4.6l6.8 14.4c.2 0 .5.1.7.1l-2.9-6.2c-.7-.7-1.1-1.7-1.3-2.7zm2.6 3.8l2.9 5.2h.7l-2.6-4.7c-.4-.2-.7-.3-1-.5zm2.7.8h-.7l2.7 4.3c.2 0 .4-.1.6-.2l-2.6-4.1c.1 0 0 0 0 0zm3.8-1.6l3.1 3.3.4-.4-3.1-3.4c-.1.2-.3.4-.4.5zm6-4.1l-13.8-8.8c-.2.1-.4.2-.7.3l5.3 3.4c1.6.2 3 1.1 3.8 2.4l5.3 3.4v-.5c.2 0 .1-.1.1-.2zm-15-.9l-2.5-4.6L76 18c.1-.2.2-.5.3-.7l-2.4-3.8 2.5 3.5c.1-.2.2-.4.4-.6l-2.4-3.3 2.6 3.1c.1-.2.3-.3.4-.5l-2.5-3 2.7 2.9c.2-.1.3-.3.5-.4l-2.7-2.9 2.9 2.8.6-.3-3.2-2.8 3.3 2.8c.2-.1.5-.2.7-.2l-3.6-3 4 2.9c.3-.1.6-.1.9-.1L76.5 11c-1.5.8-2.7 1.9-3.6 3.3l2.9 5.2c-.1-.4 0-.7.1-1zm-4.6 1.2c0 1.5.3 2.9 1 4.2l-1-4.9v.7zm.8-4l5.2 13.1c.3.1.5.2.8.3L72.5 15c-.2.2-.3.5-.4.7zm16.3-2.6l-8.1-3.2c-.4 0-.8.1-1.2.2l10.1 4c-.3-.4-.5-.7-.8-1zm2.3 4.3l-12.8-7c-.3.1-.5.2-.7.3l13.7 7.5c-.1-.3-.2-.6-.2-.8zm-.8-2.1l-11-5.2-.9.3 12.3 5.8c-.1-.4-.3-.7-.4-.9zm-8.8-5.5h-.3l6.3 2c-1.7-1.2-3.7-2-6-2zm5.3 11l3.7 3 .3-.6-3.9-3.2c0 .3-.1.5-.1.8zm-.6 1.5l3.3 3.1c.1-.2.2-.3.3-.5L86 21.7c0 .2-.1.4-.2.6zm.6-3.3l4.2 3.1c.1-.2.1-.4.1-.7l-4.6-3.3c.2.3.3.6.3.9zm-2.7 5.4l2.9 3.5c.2-.1.3-.2.5-.4L84.2 24c-.2.2-.4.3-.5.4zm-1.5.6l2.8 3.8.6-.3-2.7-3.7c-.3.1-.5.1-.7.2z"/><path class="st0" d="M91 29.5l-4.5-17.2V15l3.8 14.6h.7zm0-19.8h-.6l.6.7v-.7zm0 13.8l-4.4-13.2L91 21.1v-1.8L87.2 10l3.8 7.9v-1.6l-3.2-6.6 3.2 5.7V14l-2.4-4.3h-2.1V12L91 25.6v-2.1zm-4.6 6h.7l-.7-5.2v5.2zM91 10.6l-.7-.9h-.8l1.5 2.1v-1.2zm0 1.5l-1.6-2.5h-.8l2.4 3.7v-1.2zm-2 17.4l-2.6-13.1v3.5l1.9 9.6h.7zM65 9.7l4.5 17.2v-2.6L65.7 9.7H65zm0 19.8h.6l-.6-.7v.7zm0-13.8L69.4 29 65 18.1v1.8l3.8 9.3-3.8-7.9v1.6l3.2 6.6-3.2-5.7v1.4l2.4 4.3h2.1v-2.3L65 13.6v2.1zm4.5-6h-.8l.8 5.3V9.7zM65 28.6l.7.9h.8l-1.5-2v1.1zm0-1.5l1.6 2.5h.8L65 25.8v1.3zm1.9-17.4l2.6 13.1v-3.5l-1.9-9.6h-.7z"/><path class="st0" d="M65 9.7l4.5 17.2v-2.6L65.7 9.7H65zm0 19.8h.6l-.6-.7v.7zm0-13.8L69.4 29 65 18.1v1.8l3.8 9.3-3.8-7.9v1.6l3.2 6.6-3.2-5.7v1.4l2.4 4.3h2.1v-2.3L65 13.6v2.1zm4.5-6h-.8l.8 5.3V9.7zM65 28.6l.7.9h.8l-1.5-2v1.1zm0-1.5l1.6 2.5h.8L65 25.8v1.3zm1.9-17.4l2.6 13.1v-3.5l-1.9-9.6h-.7zm30.3 19.8c.8 0 1.4-.3 2-.8.5-.5.8-1.2.8-2s-.3-1.4-.8-1.9-1.2-.8-2-.8c-.4 0-.7.1-1.1.2l2.2.7-2.5-.6c-.2.1-.4.3-.6.5v.1l3 .7-3.2-.5c-.1.2-.3.4-.4.6l3.5.5-3.6-.2c-.1.2-.1.4-.1.6l3.7.2h-3.7c0 .2 0 .4.1.6h3.6l-3.5.3.3.6 3.3-.3-3.2.5.2.2.4.4 2.6-.4-2.3.6c.4.1.8.2 1.3.2z"/><path id="패스_537_00000078730972997217058970000017323662040668115109_" class="st0" d="M139.1 12.2c-1.7-1.6-3.9-2.4-6.3-2.3-1.7 0-3.4.4-4.7 1.7V9.7h-4v19.6h4.3V18.1c0-1.1.5-2.3 1.3-3.1 1.8-1.7 4.5-1.7 6.2 0 .8.7 1.3 2 1.3 3.1v11.1h4.2V18.1c.1-2.2-.6-4.4-2.3-5.9z"/><path class="st0" d="M158.8 20.7c-2.2-2-5.3-2.1-8-3.1-1.1-.4-2.9-1.5-2-2.9.6-1 2-1.2 3-1.2 2 0 3.3.9 3.3 2.3v.3h4.7v-.3c0-3.6-3.1-6.2-8-6.2-4.7 0-7.9 2.1-7.9 6.1v.5c.3 2.8 2.7 3.9 5.4 4.7.9.3 1.9.4 2.8.7 1.2.2 3.5.8 3.7 2.1.2 1.4-1.1 2.5-3.7 2.4-2 0-3.7-1-3.8-2.3 0-.2-.1-.4-.1-.6v-.4h-4.7v.4c0 3.8 3.6 6.4 8.8 6.4.7 0 1.4 0 2-.1 2.2-.3 4.4-1.2 5.4-3.3 1-1.9.6-4.1-.9-5.5z"/></svg>