<svg xmlns="http://www.w3.org/2000/svg" viewBox="0 0 47.96 21.42"><path d="M37.29 20.22h-3.53l-1.29-4.82H26.8l-1.29 4.82H22L27.75 0h3.77l5.78 20.22zm-9.7-7.81h4.1L29.65 4.7l-2.06 7.71zM33.68 0h6.77c5.34 0 7.5 2.27 7.5 7.09v6.06c0 4.8-2.3 7.07-7.5 7.07h-1.02l-.92-2.99h1.81c2.91 0 4.07-1.13 4.07-4.15V7.14c0-3.02-1.16-4.15-4.07-4.15h-5.77L33.67 0zM13.13 13.13c0 4.82-2.17 7.09-7.5 7.09H.95c-.65 0-.95-.31-.95-.95V.98C0 .34.31 0 .95 0h4.67c5.21 0 7.5 2.27 7.5 7.07v6.06zM9.57 7.15C9.57 4.13 8.41 3 5.5 3H3.57v14.23H5.5c2.91 0 4.07-1.13 4.07-4.15V7.14zM16.49 0h3.53v15.5h-3.53z" fill="#1c1c1b"/><circle cx="18.2" cy="19.12" r="2.3" fill="#f5c813"/></svg>