<svg width="188" height="26" fill="none" xmlns="http://www.w3.org/2000/svg"><g clip-path="url(#clip0_1603_324)"><path d="M115.458 6.101c-1.142 0-2.176.44-2.958 1.157a4.366 4.366 0 00-2.957-1.157 4.368 4.368 0 00-4.371 4.358v9.273h2.833V10.46a1.539 1.539 0 013.079 0v9.273h2.833V10.46a1.54 1.54 0 013.079 0v9.259h2.832v-9.26c0-2.401-1.96-4.357-4.37-4.357zm16.818 0c-1.142 0-2.176.44-2.957 1.157a4.367 4.367 0 00-2.958-1.157 4.368 4.368 0 00-4.371 4.358v9.273h2.833V10.46a1.539 1.539 0 013.079 0v9.273h2.833V10.46a1.54 1.54 0 013.079 0v9.259h2.833v-9.26c0-2.401-1.96-4.357-4.371-4.357zm-35.613-.034c-3.821 0-6.929 3.096-6.929 6.903 0 3.807 3.108 6.903 6.93 6.903 3.821 0 6.928-3.096 6.928-6.903 0-3.807-3.107-6.903-6.929-6.903zm0 10.987c-2.26 0-4.096-1.832-4.096-4.08 0-2.25 1.839-4.082 4.096-4.082 2.258 0 4.096 1.832 4.096 4.081 0 2.25-1.838 4.08-4.096 4.08zM81.664 8.89c1.555 0 2.903.917 3.56 2.246h3.017c-.796-2.918-3.444-5.068-6.577-5.068-3.765 0-6.824 3.095-6.824 6.902s3.062 6.903 6.824 6.903c3.136 0 5.781-2.15 6.578-5.068h-3.017c-.658 1.332-2.006 2.246-3.561 2.246-2.201 0-3.991-1.831-3.991-4.08 0-2.25 1.79-4.081 3.99-4.081zm84.644 0c1.556 0 2.904.917 3.561 2.246h3.017c-.796-2.918-3.445-5.068-6.578-5.068-3.764 0-6.824 3.095-6.824 6.902s3.063 6.903 6.824 6.903c3.136 0 5.782-2.15 6.578-5.068h-3.017c-.657 1.332-2.005 2.246-3.561 2.246-2.201 0-3.991-1.831-3.991-4.08 0-2.25 1.79-4.081 3.991-4.081zm-21.253-2.823c-3.765 0-6.825 3.096-6.825 6.903 0 3.807 3.063 6.903 6.825 6.903 2.818 0 5.243-1.738 6.283-4.21h-3.261a4 4 0 01-3.025 1.388c-1.788 0-3.303-1.182-3.833-2.81h10.541a7 7 0 00.119-1.27c0-3.808-3.063-6.904-6.824-6.904zm-3.833 5.633c.53-1.63 2.045-2.81 3.833-2.81 1.787 0 3.302 1.182 3.832 2.81h-7.665zM188 12.97c0-3.807-3.063-6.903-6.824-6.903-3.762 0-6.824 3.096-6.824 6.903 0 3.807 3.062 6.903 6.824 6.903 2.818 0 5.243-1.738 6.283-4.21h-3.261a3.998 3.998 0 01-3.025 1.388c-1.788 0-3.303-1.182-3.833-2.81h10.541a7 7 0 00.119-1.27zm-10.657-1.27c.53-1.63 2.045-2.81 3.833-2.81 1.787 0 3.303 1.182 3.832 2.81h-7.665zm-23.841-1.402v9.434h2.833v-9.539c0-.798.648-1.445 1.45-1.445h1.11V6.22h-1.3a4.086 4.086 0 00-4.093 4.078z" fill="#0063FD"/><path d="M11.028 7.408a6.913 6.913 0 00-4.096-1.34C3.108 6.067 0 9.165 0 12.97c0 3.804 3.108 6.903 6.929 6.903 1.532 0 2.949-.5 4.096-1.34v.784a3.869 3.869 0 01-3.872 3.858v2.822c3.696 0 6.705-2.997 6.705-6.68v-13.1h-2.833v1.191h.003zm-4.096 9.646c-2.26 0-4.096-1.832-4.096-4.08 0-2.25 1.838-4.082 4.096-4.082 2.257 0 4.096 1.832 4.096 4.081 0 2.25-1.839 4.08-4.096 4.08zM26.47 7.408a6.913 6.913 0 00-4.096-1.34c-3.821 0-6.929 3.095-6.929 6.902s3.108 6.903 6.93 6.903a6.91 6.91 0 004.095-1.34v1.196h2.833V6.217H26.47v1.191zm-4.096 9.646c-2.26 0-4.096-1.832-4.096-4.08 0-2.25 1.838-4.082 4.096-4.082s4.096 1.832 4.096 4.081c0 2.25-1.838 4.08-4.096 4.08zm16.01-10.986a6.904 6.904 0 00-4.096 1.34V0h-2.833v19.732h2.833v-1.197a6.913 6.913 0 004.096 1.341c3.821 0 6.929-3.096 6.929-6.903 0-3.807-3.108-6.903-6.93-6.903v-.002zm0 10.986c-2.26 0-4.096-1.832-4.096-4.08 0-2.25 1.838-4.082 4.096-4.082s4.096 1.832 4.096 4.081c0 2.25-1.838 4.08-4.096 4.08zM49.739 6.217h-2.833v13.512h2.833V6.217zm12.624 1.191a6.914 6.914 0 00-4.096-1.34c-3.822 0-6.93 3.095-6.93 6.902s3.108 6.903 6.93 6.903c1.532 0 2.949-.5 4.096-1.34v1.196h2.833V6.217h-2.833v1.191zm-4.096 9.646c-2.26 0-4.096-1.832-4.096-4.08 0-2.25 1.838-4.082 4.096-4.082 2.257 0 4.096 1.832 4.096 4.081 0 2.25-1.839 4.08-4.096 4.08zm11.519-.632c-1.11 0-2.009.897-2.009 2 0 1.104.901 2.002 2.009 2.002a2.005 2.005 0 002.008-2.001c0-1.107-.9-2.001-2.008-2.001z" fill="#0042CF"/></g><defs><clipPath id="clip0_1603_324"><path fill="#fff" d="M0 0h188v26H0z"/></clipPath></defs></svg>